<?xml version="1.0" encoding="UTF-8" standalone="no"?>
<!-- Created with Inkscape (http://www.inkscape.org/) -->

<svg
   width="64"
   height="64"
   viewBox="0 0 64 64"
   version="1.1"
   id="svg1"
   xmlns="http://www.w3.org/2000/svg"
   xmlns:svg="http://www.w3.org/2000/svg">
  <defs
     id="defs1" />
  <g
     id="layer1"
     transform="matrix(0.98126484,0,0,0.98126484,0.60131565,0.5984523)">
    <path
       style="vector-effect:non-scaling-stroke;fill:#00c121;fill-opacity:1;stroke:#000000;stroke-width:1.64778;-inkscape-stroke:hairline"
       d="M 32.043114,4.1251438 C 39.103117,-3.4506255 47.732056,0.73019971 47.849038,9.4862369 47.966016,18.242273 40.944006,21.574099 32.025215,32.017238 22.174185,20.008821 16.845521,17.182117 16.863425,9.4064149 16.881338,1.6307116 24.723313,-3.651388 32.043114,4.1251438 Z"
       id="path1" />
    <path
       style="vector-effect:non-scaling-stroke;fill:#00c121;fill-opacity:1;stroke:#000000;stroke-width:1.64778;-inkscape-stroke:hairline"
       d="m 59.892304,31.867323 c 7.575769,7.060003 3.394944,15.688942 -5.361093,15.805924 -8.756037,0.116979 -12.087862,-6.905032 -22.531001,-15.823823 12.008416,-9.85103 14.835121,-15.179693 22.610823,-15.161789 7.775703,0.01792 13.057802,7.859887 5.281271,15.179688 z"
       id="path1-9" />
    <path
       style="vector-effect:non-scaling-stroke;fill:#00c121;fill-opacity:1;stroke:#000000;stroke-width:1.64778;-inkscape-stroke:hairline"
       d="M 4.2988371,31.911371 C -3.276932,24.851368 0.90389342,16.222429 9.6599302,16.105447 18.415967,15.988469 21.747793,23.010479 32.190932,31.92927 20.182515,41.7803 17.35581,47.108964 9.5801082,47.09106 1.8044048,47.073147 -3.4776945,39.231172 4.2988371,31.911371 Z"
       id="path1-1" />
    <path
       style="vector-effect:non-scaling-stroke;fill:#00c121;fill-opacity:1;stroke:#000000;stroke-width:1.64778;-inkscape-stroke:hairline"
       d="M 32.086199,59.760332 C 25.026195,67.3361 16.397256,63.155275 16.280274,54.399239 16.163296,45.643201 23.185306,42.311376 32.104099,31.868237 c 9.85103,12.008416 15.179693,14.835121 15.161789,22.610824 -0.01792,7.775703 -7.859887,13.057801 -15.179689,5.281271 z"
       id="path1-0" />
  </g>
</svg>
